# xmcd CD database file
#
# Track frame offsets:
#	150
#	22112
#	37622
#	58160
#	76667
#	90927
#	116407
#	136292
#	159460
#	177897
#	197125
#	220302
#	240070
#	258370
#	278950
#	299537
#	320887
#	338270
#
# Disc length: 4710 seconds
#
# Revision: 0
# Processed by: cddbd v1.5PL3 Copyright (c) Steve Scherf et al.
# Submitted via: CDex 1.50beta10
#
DISCID=f1126412
DTITLE=Various Artist - feel -the most relaxing-
DYEAR=1900
DGENRE=New Age
TTITLE0=世紀を越えて
TTITLE1=神々の詩
TTITLE2=祈り
TTITLE3=リターン・トゥ・イノセンス
TTITLE4=運命と絆
TTITLE5=EYES ON ME
TTITLE6=溢れる愛のなかでも
TTITLE7=ニュー・エイジア
TTITLE8=タイム・トゥ・セイ・グッバイ
TTITLE9=シェルタリング・スカイ・テーマ
TTITLE10=ポーリュシカ・ポーレ
TTITLE11=マイ・ハート・ウィル・ゴー・オン
TTITLE12=聖なる大地の祈り
TTITLE13=楽しみを希う心
TTITLE14=ブシンドレ・リール
TTITLE15=前奏曲
TTITLE16=終焉
TTITLE17=世紀末の詩
EXTD=
EXTT0=
EXTT1=
EXTT2=
EXTT3=
EXTT4=
EXTT5=
EXTT6=
EXTT7=
EXTT8=
EXTT9=
EXTT10=
EXTT11=
EXTT12=
EXTT13=
EXTT14=
EXTT15=
EXTT16=
EXTT17=
PLAYORDER=
